<?xml version="1.0" standalone="no"?>
<!DOCTYPE svg PUBLIC "-//W3C//DTD SVG 20010904//EN"
 "http://www.w3.org/TR/2001/REC-SVG-20010904/DTD/svg10.dtd">
<svg version="1.0" xmlns="http://www.w3.org/2000/svg"
 width="3000.000000pt" height="3000.000000pt" viewBox="0 0 3000.000000 3000.000000"
 preserveAspectRatio="xMidYMid meet">
<metadata>
Created by potrace 1.14, written by Peter Selinger 2001-2017
</metadata>
<g transform="translate(0.000000,3000.000000) scale(0.100000,-0.100000)"
fill="#000000" stroke="none">
<path d="M0 15000 l0 -15000 15000 0 15000 0 0 15000 0 15000 -15000 0 -15000
0 0 -15000z m14883 10113 c-34 -2 -93 -2 -130 0 -37 2 -9 3 62 3 72 0 102 -1
68 -3z m197 -23 c29 -3 26 -4 -20 -10 l-55 -7 63 -3 c34 -1 67 -4 72 -5 6 -1
20 -3 33 -4 21 -2 21 -3 2 -11 -17 -8 -18 -9 -2 -11 9 -1 23 -2 30 -3 6 -1 11
-7 10 -14 -2 -7 10 -12 30 -13 27 0 29 -2 12 -9 -17 -8 -18 -9 -2 -11 9 -1 22
-3 27 -4 6 -1 20 -4 33 -5 21 -2 21 -2 -3 -10 -24 -7 -23 -7 12 -15 21 -4 36
-12 35 -19 -1 -6 4 -10 11 -8 6 1 12 -4 12 -12 0 -8 7 -17 16 -20 8 -3 12 -10
9 -16 -3 -5 3 -10 14 -10 12 0 20 -5 19 -12 -2 -7 4 -12 12 -13 9 0 14 -8 12
-19 -3 -14 1 -17 12 -13 10 4 16 1 16 -7 0 -8 7 -17 16 -20 8 -3 12 -10 9 -16
-3 -5 2 -10 12 -10 14 0 15 -2 5 -9 -11 -7 -11 -9 2 -14 9 -4 16 -10 15 -14
-1 -4 -1 -17 1 -28 l1 -20 9 20 c8 19 9 19 11 -2 3 -41 4 -44 15 -51 6 -4 15
-25 19 -47 6 -33 9 -37 15 -20 7 16 9 14 9 -12 1 -20 6 -32 13 -30 7 1 13 -4
14 -10 1 -7 2 -21 3 -30 2 -16 3 -15 11 2 8 17 9 18 11 3 1 -10 3 -22 4 -28 1
-5 4 -25 5 -42 l2 -33 7 30 c7 27 9 23 16 -30 6 -45 10 -55 16 -40 5 14 8 1
10 -40 1 -52 3 -55 8 -25 6 29 9 18 18 -60 8 -79 10 -86 12 -41 2 93 10 51 17
-94 3 -77 8 -142 10 -144 2 -2 5 31 6 75 1 43 4 -4 8 -106 5 -181 2 -228 -16
-222 -5 1 -9 -4 -9 -10 0 -7 -7 -13 -15 -13 -12 0 -15 -19 -17 -105 -1 -58 -3
-139 -4 -180 l-2 -75 -7 55 -7 55 -3 -75 c-3 -70 -3 -72 -10 -30 l-7 45 -3
-42 c-1 -24 -4 -47 -5 -53 -1 -5 -3 -18 -4 -27 -2 -16 -3 -15 -11 2 -8 18 -9
18 -9 -5 -2 -39 -12 -70 -22 -64 -5 3 -10 -4 -10 -15 -1 -12 -3 -25 -4 -31 -1
-5 -3 -17 -4 -26 0 -8 -5 -12 -11 -9 -6 4 -10 -8 -11 -27 l-1 -33 -7 30 c-7
30 -7 30 -14 -12 -4 -23 -11 -43 -17 -45 -5 -1 -11 -14 -14 -28 -2 -14 -9 -24
-15 -22 -6 1 -12 -7 -12 -18 -3 -41 -4 -45 -19 -45 -8 0 -16 -6 -16 -12 -1 -7
-2 -25 -3 -40 -2 -25 -3 -26 -11 -8 -7 16 -9 12 -11 -20 l-2 -40 -7 35 -7 35
-3 -42 c-4 -64 -5 -68 -17 -66 -6 1 -14 -14 -18 -35 -6 -31 -9 -34 -15 -17 -8
17 -9 18 -11 3 -1 -10 -2 -24 -3 -30 -1 -7 -7 -12 -14 -10 -7 1 -12 -3 -12 -9
0 -6 -7 -17 -16 -26 -8 -9 -13 -22 -10 -29 3 -8 1 -14 -3 -14 -5 0 -12 6 -14
13 -5 11 -7 6 -11 -35 0 -7 -8 -13 -16 -13 -8 -1 -14 -6 -12 -13 1 -7 -8 -12
-20 -13 -21 0 -22 -1 -3 -8 17 -7 17 -8 -8 -15 -15 -3 -27 -13 -27 -21 0 -8
-3 -14 -7 -14 -24 4 -53 -2 -49 -10 6 -9 -39 -21 -88 -22 -26 0 -28 -2 -11 -9
17 -8 18 -9 3 -11 -10 -1 -22 -3 -28 -4 -5 -1 -61 -4 -122 -6 l-113 -3 110 -6
c91 -5 77 -6 -85 -6 -119 0 -170 2 -130 6 l65 7 -70 1 c-80 3 -117 10 -109 23
3 5 -4 10 -15 10 -12 1 -25 3 -31 4 -5 1 -20 3 -32 4 -22 2 -22 3 -3 11 21 9
20 10 -37 14 -13 1 -22 7 -21 14 2 6 -14 14 -35 18 -35 7 -35 8 -12 15 23 6
22 7 -10 9 -28 1 -31 3 -15 9 17 7 16 9 -13 15 -18 4 -30 11 -28 15 3 4 -4 15
-15 24 -10 9 -19 24 -19 32 0 8 -7 15 -15 15 -8 0 -14 5 -13 12 2 7 -4 12 -12
13 -8 0 -16 6 -16 13 -1 6 -3 22 -4 35 -2 21 -2 21 -10 -3 -7 -23 -8 -22 -10
10 -1 29 -3 32 -10 15 -5 -11 -9 -17 -11 -12 -1 4 -3 12 -4 17 -1 6 -3 25 -4
43 -2 26 -4 28 -10 13 -7 -18 -8 -18 -14 5 -4 13 -7 35 -8 49 0 23 -1 23 -9 5
-8 -17 -9 -18 -11 -2 -1 9 -3 22 -4 27 -1 6 -3 17 -4 26 0 8 -5 12 -11 9 -6
-4 -11 9 -11 32 l-2 38 -7 -40 -7 -40 -3 35 c-1 19 -6 46 -10 60 l-8 25 -2
-25 c-1 -23 -2 -23 -9 -5 -5 11 -7 23 -4 28 2 4 -3 7 -11 7 -10 0 -17 13 -21
38 -10 55 -13 61 -14 23 -1 -44 -12 -34 -16 16 -5 51 -6 52 -15 23 -7 -20 -8
-16 -10 25 -2 41 -3 45 -10 25 -7 -22 -8 -22 -11 -5 -1 11 -3 25 -4 30 -2 6
-4 30 -5 55 -2 42 -3 43 -10 15 -4 -16 -9 -23 -10 -15 -10 76 -19 101 -21 59
-2 -37 -17 58 -20 126 -3 57 -3 56 -9 -25 -6 -76 -6 -71 -6 50 0 74 1 113 3
85 6 -77 18 -36 14 46 -3 57 -6 67 -11 44 -6 -24 -8 -18 -10 30 -1 42 -4 53
-9 35 -14 -52 -18 1 -12 165 l6 170 5 -135 6 -135 3 160 c3 95 6 142 10 115 8
-58 24 -37 20 28 -1 26 -1 76 1 112 4 63 4 63 10 -30 l6 -95 3 115 c3 119 17
249 20 181 2 -57 11 -24 21 79 1 8 6 4 10 -10 7 -20 8 -16 10 25 2 44 3 47 10
20 8 -31 12 -19 13 33 0 12 6 22 13 22 8 0 15 7 15 15 3 35 5 40 17 38 10 -3
17 24 13 50 0 4 6 7 14 7 9 0 18 13 22 32 5 27 7 29 14 13 6 -17 8 -15 9 10 1
26 3 27 10 10 6 -17 9 -13 16 20 7 37 8 38 15 15 l7 -25 2 25 c1 14 2 28 1 33
0 4 6 7 14 7 8 0 16 7 16 15 1 14 3 20 8 43 2 4 6 -2 11 -13 7 -17 9 -14 10
15 1 29 3 32 10 15 l9 -20 1 20 c2 11 2 23 1 28 0 4 8 7 19 7 11 0 19 3 19 8
-1 4 -1 16 1 27 l1 20 9 -20 c8 -20 11 -18 14 8 0 6 8 12 16 12 8 0 15 7 15
15 0 9 10 16 23 16 35 2 38 5 17 14 -17 8 -18 9 -2 11 9 1 23 2 30 3 6 1 11 7
10 14 -2 7 7 12 20 13 21 0 21 1 2 9 -18 8 -18 9 5 10 66 4 117 19 69 21 -51
1 14 18 81 20 l65 2 -55 7 c-50 5 -52 6 -20 11 35 5 416 4 480 -1z m-1163
-842 c-3 -8 -6 -5 -6 6 -1 11 2 17 5 13 3 -3 4 -12 1 -19z m-30 -160 c-3 -8
-6 -5 -6 6 -1 11 2 17 5 13 3 -3 4 -12 1 -19z m-50 -350 c-3 -8 -6 -5 -6 6 -1
11 2 17 5 13 3 -3 4 -12 1 -19z m300 -880 c-3 -8 -6 -5 -6 6 -1 11 2 17 5 13
3 -3 4 -12 1 -19z m711 -505 c-21 -2 -55 -2 -75 0 -21 2 -4 4 37 4 41 0 58 -2
38 -4z m3229 -2045 c-2 -18 -4 -4 -4 32 0 36 2 50 4 33 2 -18 2 -48 0 -65z
m7581 -17143 c3 -3 57 -305 69 -383 l6 -43 -44 3 -44 3 -5 45 c-3 31 -10 46
-21 48 -13 2 -18 -8 -24 -47 l-7 -51 -39 0 c-32 0 -39 4 -39 19 0 11 14 106
30 211 17 105 30 193 30 195 0 12 75 11 88 0z m2681 -183 c18 -103 35 -199 38
-214 5 -27 4 -28 -40 -28 l-45 0 -7 51 c-6 39 -11 49 -24 47 -11 -2 -18 -17
-21 -48 l-5 -45 -43 -3 -44 -3 7 43 c5 24 20 119 34 213 25 163 27 169 51 175
63 15 64 14 99 -188z m-3168 159 c27 -27 29 -35 29 -106 0 -42 -5 -85 -10 -96
-12 -22 -61 -49 -89 -49 -18 0 -20 -8 -23 -72 l-3 -73 -42 -3 -43 -3 0 215 0
216 76 0 c70 0 78 -2 105 -29z m1055 6 c23 -20 28 -34 32 -84 4 -51 1 -64 -16
-81 -19 -19 -19 -20 -1 -36 16 -13 19 -30 19 -111 l0 -95 -45 0 -44 0 -3 87
c-2 56 -7 88 -15 90 -9 3 -13 -20 -15 -84 l-3 -88 -42 -3 c-43 -3 -45 -1 -45
38 0 11 0 103 1 205 l1 185 74 0 c64 0 79 -3 102 -23z m534 -17 l0 -40 -40 0
-40 0 0 -40 c0 -36 2 -40 26 -40 23 0 25 -3 22 -42 -2 -36 -7 -44 -25 -46 -20
-3 -23 -9 -23 -48 l0 -44 40 0 40 0 0 -45 0 -46 -87 3 -88 3 -3 200 c-1 110 0
205 2 212 4 9 31 13 91 13 l85 0 0 -40z m428 -52 c14 -49 28 -88 31 -88 4 0 6
39 6 88 l0 87 43 3 c29 2 42 -1 42 -10 0 -7 1 -103 1 -213 l2 -200 -36 -3 -36
-3 -33 103 -33 103 -3 -102 -3 -103 -44 0 -45 0 0 216 0 215 42 -3 41 -3 25
-87z m662 53 c0 -36 -3 -40 -27 -43 l-28 -3 -3 -172 -2 -173 -45 0 -45 0 -2
173 -3 172 -27 3 c-25 3 -28 7 -28 43 l0 39 105 0 105 0 0 -39z m930 -131 l0
-170 46 0 45 0 -3 -42 -3 -43 -87 -3 -88 -3 0 216 0 215 45 0 45 0 0 -170z
m380 -960 l0 -570 -2235 0 -2235 0 0 570 0 570 2235 0 2235 0 0 -570z m-4030
-779 c0 -27 -3 -30 -37 -33 l-38 -3 -3 -57 c-3 -56 -2 -58 23 -58 22 0 25 -4
25 -35 0 -31 -3 -35 -25 -35 -24 0 -25 -2 -25 -70 l0 -70 40 0 c39 0 40 -1 40
-35 l0 -36 -67 3 -68 3 -3 228 -2 227 70 0 70 0 0 -29z m165 -31 c7 -61 25
-83 25 -31 0 16 3 43 6 60 6 26 11 31 35 31 34 0 34 2 5 -124 l-22 -99 27
-111 c14 -61 23 -115 19 -119 -4 -5 -18 -7 -31 -5 -21 3 -25 11 -34 65 -5 34
-13 64 -16 67 -3 4 -9 -19 -13 -51 -4 -31 -12 -63 -18 -70 -12 -14 -44 -18
-52 -5 -2 4 7 57 21 117 l26 110 -22 99 c-13 54 -25 105 -28 112 -4 10 5 14
30 14 l35 0 7 -60z m345 40 c27 -27 33 -58 28 -139 -4 -78 -21 -106 -72 -119
l-31 -8 -3 -88 -3 -87 -27 3 -27 3 -3 228 -2 227 60 0 c46 0 64 -4 80 -20z
m200 -175 l0 -195 40 0 c39 0 40 -1 40 -35 l0 -36 -67 3 -68 3 -3 228 -2 227
30 0 30 0 0 -195z m238 -32 l-3 -228 -25 0 -25 0 -3 228 -2 227 30 0 30 0 -2
-227z m261 201 c13 -17 21 -41 21 -65 0 -37 -2 -39 -30 -39 -27 0 -30 3 -30
30 0 23 -4 30 -20 30 -20 0 -20 -5 -18 -157 3 -133 5 -158 18 -158 10 0 16 12
18 33 3 28 7 32 33 32 26 0 29 -3 29 -35 0 -76 -50 -120 -110 -95 -17 7 -35
21 -40 30 -5 10 -10 97 -10 195 -2 171 -1 178 21 201 32 34 90 33 118 -2z
m189 -201 l-3 -228 -25 0 -25 0 -3 228 -2 227 30 0 30 0 -2 -227z m272 197 c0
-25 -4 -30 -25 -30 l-25 0 -2 -197 -3 -198 -27 -3 -28 -3 -2 198 -3 198 -23 3
c-25 4 -37 24 -28 47 4 12 24 15 86 15 l80 0 0 -30z m429 4 c13 -17 21 -41 21
-65 0 -36 -2 -39 -29 -39 -26 0 -30 4 -33 33 -2 20 -8 32 -18 32 -13 0 -15
-24 -15 -160 0 -136 2 -160 15 -160 10 0 16 12 18 33 3 28 7 32 33 32 28 0 29
-2 29 -42 -1 -69 -46 -108 -102 -89 -55 19 -57 30 -58 222 0 163 2 178 21 203
16 20 29 26 59 26 30 0 43 -6 59 -26z m246 20 c37 -14 45 -57 45 -228 0 -159
-1 -166 -24 -192 -30 -36 -86 -39 -119 -6 -21 21 -22 33 -25 184 -2 88 -1 172
3 185 12 51 67 77 120 57z m235 -91 c32 -141 39 -144 40 -15 l0 112 30 0 30 0
0 -225 c0 -196 -2 -226 -16 -232 -26 -10 -40 17 -63 122 -12 55 -25 107 -29
115 -4 8 -9 -41 -12 -110 l-5 -125 -25 0 -25 0 -3 228 -2 227 29 0 c29 0 30
-1 51 -97z m370 67 c0 -25 -4 -30 -25 -30 l-25 0 -2 -197 -3 -198 -30 0 -30 0
-3 198 -2 197 -25 0 c-21 0 -25 5 -25 30 l0 30 85 0 85 0 0 -30z m240 0 c0
-28 -2 -30 -40 -30 l-40 0 0 -60 c0 -57 1 -60 25 -60 22 0 25 -4 25 -35 0 -31
-3 -35 -25 -35 -24 0 -25 -2 -25 -70 l0 -70 40 0 c39 0 40 -1 40 -35 l0 -35
-70 0 -70 0 0 230 0 230 70 0 70 0 0 -30z m190 -82 c13 -60 27 -108 30 -108 3
0 5 48 5 107 l0 108 30 0 30 0 2 -217 c2 -177 -1 -219 -12 -228 -28 -24 -41
-1 -71 121 l-29 124 -5 -125 -5 -125 -27 -3 -28 -3 0 231 0 231 28 -3 c26 -3
28 -8 52 -110z m370 83 c0 -25 -4 -30 -27 -33 l-28 -3 -3 -198 -2 -198 -28 3
-27 3 -3 198 -2 197 -25 0 c-21 0 -25 5 -25 30 l0 30 85 0 85 0 0 -29z"/>
<path d="M14653 24363 c15 -2 37 -2 50 0 12 2 0 4 -28 4 -27 0 -38 -2 -22 -4z"/>
<path d="M14968 24363 c6 -2 18 -2 25 0 6 3 1 5 -13 5 -14 0 -19 -2 -12 -5z"/>
<path d="M14609 24346 c-1 -1 -3 -20 -4 -43 l-3 -43 59 0 c57 0 59 1 60 28 l1
27 8 -30 c7 -26 8 -23 8 20 0 36 -2 45 -8 30 -8 -18 -9 -18 -9 -2 -1 15 -9 18
-56 16 -30 -1 -56 -3 -56 -3z"/>
<path d="M14941 24308 l-1 -48 55 0 c54 0 54 0 52 30 -1 19 -7 29 -16 27 -8
-1 -16 4 -18 11 -3 8 2 10 14 6 15 -5 15 -4 3 5 -25 18 -70 14 -71 -6 0 -15
-2 -15 -9 2 -6 15 -9 8 -9 -27z"/>
<path d="M14648 24243 c12 -2 32 -2 45 0 12 2 2 4 -23 4 -25 0 -35 -2 -22 -4z"/>
<path d="M14978 24243 c6 -2 18 -2 25 0 6 3 1 5 -13 5 -14 0 -19 -2 -12 -5z"/>
<path d="M14433 24053 c9 -2 23 -2 30 0 6 3 -1 5 -18 5 -16 0 -22 -2 -12 -5z"/>
<path d="M14355 24032 c-26 -4 -28 -5 -10 -12 16 -7 11 -9 -20 -10 -34 -2 -36
-3 -15 -9 23 -7 23 -8 -12 -15 -21 -4 -37 -10 -37 -14 1 -4 0 -18 -1 -32 l-2
-25 -8 25 c-7 20 -8 16 -10 -25 -3 -48 -3 -49 -10 -15 -6 26 -8 15 -8 -45 0
-53 2 -73 8 -60 8 19 9 19 9 -3 1 -24 27 -57 45 -57 6 0 11 -7 11 -15 0 -8 6
-16 13 -16 6 -1 22 -2 35 -3 21 -2 21 -3 2 -11 -17 -8 -18 -9 -2 -11 9 -1 22
-3 27 -4 6 -1 18 -3 28 -4 15 -2 14 -3 -3 -11 -13 -6 16 -8 80 -8 66 0 88 3
65 8 l-35 7 35 4 c19 2 33 8 30 13 -3 5 5 12 18 17 12 5 22 16 22 24 0 9 5 13
10 10 6 -3 10 2 11 12 0 16 1 16 8 -1 7 -19 8 -19 14 3 3 12 5 64 4 114 -2 68
-5 91 -14 90 -7 -2 -13 6 -13 17 0 13 -5 18 -15 14 -9 -4 -15 0 -15 10 0 11
-10 16 -32 17 -31 1 -31 2 -8 8 l25 7 -29 6 c-32 6 -155 6 -201 0z"/>
<path d="M15130 24032 l-35 -5 30 -7 c25 -6 21 -8 -25 -10 -41 -1 -50 -4 -35
-10 20 -8 18 -11 -7 -14 -7 0 -14 -7 -14 -13 -1 -7 -3 -23 -4 -35 -2 -22 -2
-22 -10 2 -10 31 -9 32 -17 -62 -6 -87 4 -167 17 -133 7 17 9 17 9 3 1 -10 1
-21 0 -25 0 -4 8 -10 18 -14 10 -3 18 -12 18 -20 0 -8 6 -15 13 -15 6 -1 31
-3 55 -4 l42 -3 -45 -7 c-33 -5 -16 -7 60 -7 76 0 93 2 60 7 l-45 7 58 3 c82
4 82 4 82 20 1 8 6 14 13 13 7 -2 12 7 13 20 1 21 1 21 9 -3 8 -24 8 -24 10
-2 1 12 4 27 5 32 1 6 4 22 5 38 l2 27 8 -30 c9 -34 11 -25 14 55 3 58 -6 97
-20 93 -5 -2 -9 3 -9 10 -1 6 -6 11 -13 10 -7 -2 -12 5 -12 15 0 14 -2 15 -10
2 -8 -13 -10 -12 -10 3 0 12 -9 17 -32 18 l-33 2 35 7 c30 6 26 8 -30 10 -56
2 -60 4 -30 10 19 4 28 8 20 9 -47 6 -130 8 -160 3z"/>
<path d="M14673 23865 c0 -33 2 -45 4 -27 2 18 2 45 0 60 -2 15 -4 0 -4 -33z"/>
<path d="M14993 23845 c0 -33 2 -45 4 -27 2 18 2 45 0 60 -2 15 -4 0 -4 -33z"/>
<path d="M15743 23550 c0 -41 2 -58 4 -37 2 20 2 54 0 75 -2 20 -4 3 -4 -38z"/>
<path d="M14628 23163 c12 -2 32 -2 45 0 12 2 2 4 -23 4 -25 0 -35 -2 -22 -4z"/>
<path d="M15018 23163 c6 -2 18 -2 25 0 6 3 1 5 -13 5 -14 0 -19 -2 -12 -5z"/>
<path d="M14580 23141 c-1 -3 -3 -23 -6 -43 -5 -32 -3 -38 13 -39 16 0 16 -1
-2 -9 -14 -6 -2 -9 43 -9 50 -1 62 2 62 15 0 8 5 12 10 9 6 -4 10 12 9 42 0
36 -3 43 -9 28 -8 -18 -9 -18 -9 -2 -1 15 -9 18 -56 16 -30 -1 -55 -5 -55 -8z"/>
<path d="M14993 23105 c0 -27 2 -38 4 -22 2 15 2 37 0 50 -2 12 -4 0 -4 -28z"/>
<path d="M15011 23096 l2 -56 44 0 c43 0 46 2 46 45 0 30 -3 35 -18 35 -8 0
-14 5 -12 11 1 7 -13 14 -31 16 l-33 4 2 -55z m79 4 c0 -5 -2 -10 -4 -10 -3 0
-8 5 -11 10 -3 6 -1 10 4 10 6 0 11 -4 11 -10z"/>
<path d="M14629 22920 c-23 -4 -26 -10 -26 -51 -1 -46 0 -47 36 -53 64 -10 77
-1 80 55 1 34 -2 49 -11 50 -7 0 -22 2 -33 3 -11 1 -32 -1 -46 -4z"/>
<path d="M14733 22880 c0 -25 2 -35 4 -22 2 12 2 32 0 45 -2 12 -4 2 -4 -23z"/>
<path d="M14972 22880 c0 -37 1 -41 8 -20 8 24 8 23 9 -7 1 -22 6 -33 16 -34
71 -5 70 -5 74 36 l5 40 6 -40 7 -40 2 43 c1 34 -2 42 -16 43 -15 0 -15 2 2 9
14 6 4 9 -37 9 -49 1 -58 -2 -59 -16 0 -15 -2 -15 -9 2 -6 15 -9 9 -8 -25z"/>
<path d="M14658 22793 c6 -2 18 -2 25 0 6 3 1 5 -13 5 -14 0 -19 -2 -12 -5z"/>
<path d="M14658 22723 c6 -2 18 -2 25 0 6 3 1 5 -13 5 -14 0 -19 -2 -12 -5z"/>
<path d="M15023 22723 c9 -2 25 -2 35 0 9 3 1 5 -18 5 -19 0 -27 -2 -17 -5z"/>
<path d="M14612 22640 c0 -50 2 -68 8 -55 8 20 9 20 9 -1 1 -21 1 -21 77 -15
8 1 11 25 10 69 l-1 67 -42 1 -43 2 -2 -52 -1 -51 -7 55 -7 55 -1 -75z"/>
<path d="M14983 22703 c-9 -3 -13 -24 -12 -61 0 -41 3 -51 9 -37 8 18 9 17 9
-7 1 -26 4 -28 45 -28 l44 0 -2 68 -1 67 -40 1 c-22 1 -46 -1 -52 -3z m4 -60
c-3 -10 -5 -2 -5 17 0 19 2 27 5 18 2 -10 2 -26 0 -35z"/>
<path d="M14733 22645 c0 -33 2 -45 4 -27 2 18 2 45 0 60 -2 15 -4 0 -4 -33z"/>
<path d="M15093 22645 c0 -33 2 -45 4 -27 2 18 2 45 0 60 -2 15 -4 0 -4 -33z"/>
<path d="M14751 22654 c0 -11 3 -14 6 -6 3 7 2 16 -1 19 -3 4 -6 -2 -5 -13z"/>
<path d="M14658 22543 c6 -2 18 -2 25 0 6 3 1 5 -13 5 -14 0 -19 -2 -12 -5z"/>
<path d="M25609 2962 c-3 -45 -1 -62 9 -62 13 0 15 58 3 100 -6 19 -9 10 -12
-38z"/>
<path d="M28257 3000 c-11 -42 -8 -100 6 -100 8 0 11 14 9 48 -4 70 -7 80 -15
52z"/>
<path d="M25080 3024 c0 -73 24 -70 28 4 2 42 0 52 -12 52 -13 0 -16 -12 -16
-56z"/>
<path d="M26140 3040 c0 -22 4 -40 10 -40 12 0 24 45 16 65 -11 29 -26 15 -26
-25z"/>
<path d="M25014 2512 c-6 -4 -14 -32 -18 -62 -21 -180 -97 -801 -102 -832 l-6
-38 60 0 60 0 7 68 c14 163 17 169 59 158 20 -5 24 -14 30 -68 4 -35 9 -84 13
-110 l6 -48 58 0 c50 0 59 3 59 18 -1 9 -27 216 -58 460 -43 327 -62 446 -73
453 -17 11 -79 12 -95 1z m70 -499 l5 -103 -25 0 -25 0 6 138 c4 75 9 144 12
152 8 20 20 -62 27 -187z"/>
<path d="M25467 2513 c-4 -3 -7 -215 -7 -470 l0 -463 98 0 c113 0 148 13 196
73 l31 39 3 336 c2 220 -1 350 -8 374 -13 44 -66 93 -117 107 -42 12 -186 15
-196 4z m183 -153 c19 -19 20 -33 20 -310 0 -277 -1 -291 -20 -310 -11 -11
-31 -20 -45 -20 l-25 0 0 324 c0 250 3 325 13 329 23 10 37 7 57 -13z"/>
<path d="M26014 2505 c-3 -8 4 -97 15 -197 12 -101 35 -302 52 -447 16 -145
32 -267 35 -272 7 -11 111 -12 118 -1 3 5 21 132 40 283 20 151 46 354 59 452
l24 179 -26 9 c-14 6 -42 7 -62 4 l-36 -6 -6 -62 c-3 -34 -14 -167 -23 -294
-10 -128 -21 -233 -26 -233 -4 0 -8 10 -8 23 0 12 -7 141 -16 287 -13 214 -20
267 -32 278 -23 17 -101 16 -108 -3z"/>
<path d="M26592 2513 l-22 -4 2 -462 3 -462 60 0 60 0 3 454 c1 275 -2 459 -7
464 -11 11 -65 16 -99 10z"/>
<path d="M27045 2510 c-98 -30 -147 -183 -102 -316 10 -28 49 -99 88 -159 96
-148 109 -175 109 -235 0 -64 -13 -90 -45 -90 -27 0 -33 14 -37 90 l-3 45 -64
3 -64 3 5 -78 c8 -136 55 -188 170 -188 77 0 99 15 138 93 30 60 33 162 7 239
-10 29 -53 101 -94 160 -92 131 -103 156 -103 231 0 60 11 82 42 82 24 0 38
-30 38 -84 l0 -46 60 0 60 0 0 62 c0 134 -95 221 -205 188z"/>
<path d="M27606 2510 c-39 -12 -75 -47 -97 -95 -17 -36 -19 -71 -19 -370 0
-323 1 -332 23 -375 29 -59 76 -90 135 -90 68 0 126 32 151 84 20 40 21 59 21
387 0 337 -1 345 -23 383 -12 22 -36 48 -52 57 -38 22 -101 31 -139 19z m78
-152 c14 -19 16 -66 16 -313 0 -318 -3 -334 -52 -322 -15 4 -28 16 -32 29 -3
13 -6 149 -6 303 0 238 2 284 16 303 8 12 21 22 29 22 8 0 21 -10 29 -22z"/>
<path d="M28071 2502 c-13 -25 -15 -890 -2 -910 5 -9 25 -12 62 -10 l54 3 3
202 c3 213 4 218 51 206 32 -8 41 -61 41 -245 l0 -168 60 0 60 0 0 195 c0 213
-8 255 -53 276 l-23 11 32 32 c39 39 50 105 40 224 -14 147 -65 193 -223 200
-84 4 -92 3 -102 -16z m183 -144 c12 -16 16 -47 16 -110 0 -75 -3 -91 -20
-108 -11 -11 -29 -20 -40 -20 -19 0 -20 7 -20 123 0 68 3 127 7 130 13 14 42
6 57 -15z"/>
<path d="M28631 2513 c-22 -4 -23 -8 -17 -52 3 -26 25 -137 48 -247 38 -186
42 -213 47 -414 l6 -215 60 0 60 0 1 195 c1 175 4 211 32 350 52 263 72 373
67 379 -8 7 -103 6 -110 -1 -4 -3 -15 -84 -26 -179 -11 -95 -21 -175 -24 -177
-5 -5 -11 35 -31 203 -9 77 -19 143 -23 146 -9 10 -63 17 -90 12z"/>
<path d="M25560 1151 c0 -39 4 -72 9 -76 19 -11 41 27 41 70 0 56 -8 75 -31
75 -17 0 -19 -8 -19 -69z"/>
<path d="M27415 1208 c-3 -8 -4 -77 -3 -153 3 -132 4 -140 23 -140 19 0 20 7
20 150 0 135 -2 150 -18 153 -9 2 -19 -3 -22 -10z"/>
</g>
</svg>
